<?xml version="1.0" encoding="UTF-8"?>
<svg version="1.1" xmlns="http://www.w3.org/2000/svg" width="500" height="164">
<path d="M0 0 C165 0 330 0 500 0 C500 54.12 500 108.24 500 164 C335 164 170 164 0 164 C0 109.88 0 55.76 0 0 Z " fill="#FEFEFE" transform="translate(0,0)"/>
<path d="M0 0 C1.05441788 -0.00945648 2.10883575 -0.01891296 3.19520569 -0.02865601 C4.33275803 -0.02258331 5.47031036 -0.01651062 6.64233398 -0.01025391 C7.80973618 -0.01312408 8.97713837 -0.01599426 10.17991638 -0.01895142 C12.64875778 -0.02099392 15.11761529 -0.01545113 17.58642578 -0.00292969 C21.37691194 0.01313479 25.16633403 -0.00278049 28.95678711 -0.02197266 C31.35197177 -0.01999054 33.74715576 -0.01614753 36.14233398 -0.01025391 C37.28191055 -0.0163266 38.42148712 -0.02239929 39.59559631 -0.02865601 C40.64686203 -0.01919952 41.69812775 -0.00974304 42.78125 0 C44.1733242 0.00358017 44.1733242 0.00358017 45.59352112 0.00723267 C46.3302153 0.13294647 47.06690948 0.25866028 47.82592773 0.38818359 C50.13162112 3.84672368 50.12354393 5.36755868 50.13842773 9.45068359 C50.15518555 10.51416016 50.17194336 11.57763672 50.18920898 12.67333984 C50.06932617 13.56923828 49.94944336 14.46513672 49.82592773 15.38818359 C46.56214041 17.56404181 45.66688459 17.63423375 41.89550781 17.61523438 C40.89469681 17.61508331 39.8938858 17.61493225 38.86274719 17.61477661 C37.78454208 17.60445404 36.70633698 17.59413147 35.59545898 17.58349609 C33.93712288 17.57925125 33.93712288 17.57925125 32.24528503 17.57492065 C28.70955645 17.56371361 25.17407993 17.53860786 21.63842773 17.51318359 C19.2432491 17.50315448 16.8480665 17.49402851 14.45288086 17.48583984 C8.57714362 17.46377257 2.70155368 17.43028977 -3.17407227 17.38818359 C-1.70947791 22.20621109 -0.27486129 24.70809211 3.45092773 28.13818359 C4.94164068 29.52073756 6.40883251 30.9302667 7.82592773 32.38818359 C7.82592773 33.04818359 7.82592773 33.70818359 7.82592773 34.38818359 C17.06592773 34.38818359 26.30592773 34.38818359 35.82592773 34.38818359 C35.82592773 32.07818359 35.82592773 29.76818359 35.82592773 27.38818359 C25.92592773 27.71818359 16.02592773 28.04818359 5.82592773 28.38818359 C5.49592773 27.06818359 5.16592773 25.74818359 4.82592773 24.38818359 C7.33895694 21.87515439 13.61142812 23.21467362 17.14233398 23.20263672 C17.89015137 23.20271729 18.63796875 23.20279785 19.40844727 23.20288086 C21.6845177 23.20069932 23.96009973 23.1825613 26.23608398 23.16357422 C27.68009274 23.16063936 29.1241038 23.15865518 30.56811523 23.15771484 C31.88666504 23.15360596 33.20521484 23.14949707 34.5637207 23.14526367 C37.82592773 23.38818359 37.82592773 23.38818359 40.82592773 25.38818359 C41.22436523 27.88427734 41.22436523 27.88427734 41.20092773 30.82568359 C41.2125293 32.2778125 41.2125293 32.2778125 41.22436523 33.75927734 C40.82592773 36.38818359 40.82592773 36.38818359 39.75244141 38.02758789 C36.78746346 40.12159652 34.19276005 39.77736472 30.60327148 39.78662109 C29.90198624 39.78949127 29.20070099 39.79236145 28.47816467 39.7953186 C26.99796744 39.7973576 25.51774316 39.79183912 24.03759766 39.77929688 C21.7678637 39.76321502 19.49990378 39.77916153 17.23022461 39.79833984 C15.79206963 39.79635785 14.35391575 39.79251509 12.91577148 39.78662109 C10.94918579 39.78154541 10.94918579 39.78154541 8.94287109 39.77636719 C7.91427979 39.6482666 6.88568848 39.52016602 5.82592773 39.38818359 C5.16592773 38.39818359 4.50592773 37.40818359 3.82592773 36.38818359 C1.95539376 36.51852853 1.95539376 36.51852853 -0.17407227 37.38818359 C-1.16407227 38.65662109 -1.16407227 38.65662109 -2.17407227 39.95068359 C-2.83407227 40.75505859 -3.49407227 41.55943359 -4.17407227 42.38818359 C-5.49407227 42.38818359 -6.81407227 42.38818359 -8.17407227 42.38818359 C-8.48657227 40.20068359 -8.48657227 40.20068359 -8.17407227 37.38818359 C-6.5074056 35.72151693 -4.84073893 34.05485026 -3.17407227 32.38818359 C-3.07862671 29.33392584 -4.23306861 28.32024841 -6.23657227 26.01318359 C-8.55604452 22.87067279 -8.52895746 21.2031994 -8.17407227 17.38818359 C-10.48407227 17.38818359 -12.79407227 17.38818359 -15.17407227 17.38818359 C-15.17407227 26.62818359 -15.17407227 35.86818359 -15.17407227 45.38818359 C-8.3871582 45.35337891 -8.3871582 45.35337891 -1.46313477 45.31787109 C1.39885012 45.30765516 4.2608126 45.29802748 7.12280273 45.29052734 C11.66809747 45.27855963 16.21331183 45.26438361 20.75854492 45.23730469 C24.42194119 45.21561539 28.08525131 45.20362328 31.74870682 45.19842911 C33.14819318 45.19472629 34.54767468 45.18749582 35.94712448 45.17672348 C37.90326104 45.16226134 39.85948382 45.16136713 41.81567383 45.16113281 C43.48779434 45.15447098 43.48779434 45.15447098 45.19369507 45.14767456 C47.82592773 45.38818359 47.82592773 45.38818359 49.82592773 47.38818359 C50.05639648 50.13818359 50.05639648 50.13818359 50.01342773 53.38818359 C50.00698242 54.46068359 50.00053711 55.53318359 49.99389648 56.63818359 C49.82592773 59.38818359 49.82592773 59.38818359 48.82592773 61.38818359 C41.02976695 61.46404762 33.2337008 61.51670473 25.43725586 61.55297852 C22.78324832 61.56809505 20.12926588 61.58858855 17.4753418 61.61450195 C13.66766173 61.6507588 9.86031098 61.66788122 6.05249023 61.68115234 C4.2633873 61.70437813 4.2633873 61.70437813 2.43814087 61.72807312 C1.33715057 61.72829971 0.23616028 61.72852631 -0.89819336 61.72875977 C-2.35713516 61.73875252 -2.35713516 61.73875252 -3.84555054 61.74894714 C-4.61396271 61.62989517 -5.38237488 61.5108432 -6.17407227 61.38818359 C-8.85334568 57.36927347 -8.33008475 55.14656437 -8.17407227 50.38818359 C-9.11379883 50.44039062 -9.11379883 50.44039062 -10.07250977 50.49365234 C-10.88977539 50.52072266 -11.70704102 50.54779297 -12.54907227 50.57568359 C-13.36118164 50.61048828 -14.17329102 50.64529297 -15.01000977 50.68115234 C-15.72415039 50.58447266 -16.43829102 50.48779297 -17.17407227 50.38818359 C-19.58417094 46.77303558 -19.46384791 44.12300716 -19.43969727 39.94677734 C-19.44161072 39.22329605 -19.44352417 38.49981476 -19.44549561 37.75440979 C-19.44685511 36.22713879 -19.44317501 34.69985614 -19.43481445 33.17260742 C-19.42409565 30.83079202 -19.43472518 28.48974101 -19.44750977 26.14794922 C-19.44618843 24.66422356 -19.44362658 23.18049838 -19.43969727 21.69677734 C-19.44374573 20.99467636 -19.44779419 20.29257538 -19.45196533 19.56919861 C-19.40400779 14.61811912 -19.40400779 14.61811912 -17.17407227 12.38818359 C-14.5418396 12.14767456 -14.5418396 12.14767456 -11.16381836 12.16113281 C-9.27208389 12.16135941 -9.27208389 12.16135941 -7.34213257 12.16159058 C-5.96059004 12.17180462 -4.57904912 12.18223662 -3.19750977 12.19287109 C-1.7878947 12.19660071 -0.37827703 12.19944793 1.03134155 12.20144653 C4.74352156 12.20908704 8.45554534 12.22873898 12.16766357 12.25085449 C15.9547718 12.27130401 19.74190523 12.28044633 23.52905273 12.29052734 C30.96141566 12.3119846 38.39364982 12.34612543 45.82592773 12.38818359 C45.82592773 10.07818359 45.82592773 7.76818359 45.82592773 5.38818359 C29.65592773 5.38818359 13.48592773 5.38818359 -3.17407227 5.38818359 C-3.17407227 6.70818359 -3.17407227 8.02818359 -3.17407227 9.38818359 C-4.82407227 9.38818359 -6.47407227 9.38818359 -8.17407227 9.38818359 C-8.53971425 3.90355385 -8.53971425 3.90355385 -6.98573303 1.71322632 C-4.55646598 -0.06353162 -2.99614143 0.00769895 0 0 Z " fill="#131313" transform="translate(102.174072265625,52.61181640625)"/>
<path d="M0 0 C9 0 9 0 12.28515625 2.5546875 C13.23699638 3.63912881 14.16284877 4.74688641 15.0625 5.875 C15.54654297 6.43058594 16.03058594 6.98617187 16.52929688 7.55859375 C20 11.63311086 20 11.63311086 20 14 C20.66 14 21.32 14 22 14 C22 9.38 22 4.76 22 0 C24.64 0 27.28 0 30 0 C30 9.9 30 19.8 30 30 C22 30 22 30 19.609375 28.42578125 C18.99578125 27.72839844 18.3821875 27.03101562 17.75 26.3125 C17.12609375 25.62800781 16.5021875 24.94351563 15.859375 24.23828125 C13.87580053 21.85049097 11.93918364 19.42397956 10 17 C9.67 21.29 9.34 25.58 9 30 C6.03 30 3.06 30 0 30 C0 20.1 0 10.2 0 0 Z " fill="#020202" transform="translate(300,71)"/>
<path d="M0 0 C8.91 0 17.82 0 27 0 C27 2.64 27 5.28 27 8 C21.39 8 15.78 8 10 8 C10 9.32 10 10.64 10 12 C14.62 12 19.24 12 24 12 C24 14.64 24 17.28 24 20 C19.38 20 14.76 20 10 20 C10 21.32 10 22.64 10 24 C15.61 24 21.22 24 27 24 C27 26.31 27 28.62 27 31 C18.09 31 9.18 31 0 31 C0 20.77 0 10.54 0 0 Z " fill="#111111" transform="translate(256,70)"/>
<path d="M0 0 C8.91 0 17.82 0 27 0 C27 2.64 27 5.28 27 8 C21.39 8 15.78 8 10 8 C10 9.65 10 11.3 10 13 C14.62 13 19.24 13 24 13 C24 14.98 24 16.96 24 19 C19.38 19 14.76 19 10 19 C10 20.65 10 22.3 10 24 C15.61 24 21.22 24 27 24 C27 26.64 27 29.28 27 32 C18.09 32 9.18 32 0 32 C0 21.44 0 10.88 0 0 Z " fill="#111111" transform="translate(165,70)"/>
<path d="M0 0 C9.57 0 19.14 0 29 0 C28.11975413 4.40122934 27.76334293 5.77686075 25.3125 9.13671875 C24.77882813 9.87857422 24.24515625 10.62042969 23.6953125 11.38476562 C23.13585937 12.14466797 22.57640625 12.90457031 22 13.6875 C20.89485499 15.21153062 19.79064243 16.73623797 18.6875 18.26171875 C18.19636719 18.93162842 17.70523437 19.60153809 17.19921875 20.29174805 C15.94143883 21.99388474 15.94143883 21.99388474 15 24 C19.62 24 24.24 24 29 24 C29 26.64 29 29.28 29 32 C19.1 32 9.2 32 -1 32 C-1 26.37623762 -1 26.37623762 1.58984375 22.86328125 C2.12673828 22.12142578 2.66363281 21.37957031 3.21679688 20.61523438 C4.06854492 19.47538086 4.06854492 19.47538086 4.9375 18.3125 C6.05162508 16.78837689 7.16494575 15.26366534 8.27734375 13.73828125 C8.77484131 13.06837158 9.27233887 12.39846191 9.78491211 11.70825195 C11.05976427 10.00881301 11.05976427 10.00881301 12 8 C8.04 8 4.08 8 0 8 C0 5.36 0 2.72 0 0 Z " fill="#141414" transform="translate(392,70)"/>
<path d="M0 0 C3.3 0 6.6 0 10 0 C12.30442525 5.92566493 14.23536928 11.89262558 16 18 C17.88854174 14.5701372 18.95850359 11.06105055 20.0625 7.3125 C21.89116719 1.10883281 21.89116719 1.10883281 23 0 C24.68608966 -0.07205511 26.37500659 -0.08386068 28.0625 -0.0625 C28.98160156 -0.05347656 29.90070313 -0.04445313 30.84765625 -0.03515625 C31.55792969 -0.02355469 32.26820313 -0.01195313 33 0 C31.10702069 6.79245517 28.8151793 13.38872267 26.375 20 C26.06167725 20.84925049 25.74835449 21.69850098 25.42553711 22.57348633 C23.14179887 28.71640227 23.14179887 28.71640227 22 31 C18.04 31 14.08 31 10 31 C8.56975258 27.06948228 7.14576919 23.13676931 5.72753906 19.2019043 C5.24422865 17.86371832 4.75921402 16.52614657 4.27246094 15.18920898 C3.57297655 13.26705444 2.87965723 11.34277196 2.1875 9.41796875 C1.76855469 8.26063232 1.34960938 7.1032959 0.91796875 5.91088867 C0 3 0 3 0 0 Z " fill="#0A0A0A" transform="translate(207,70)"/>
<path d="M0 0 C9.9 0 19.8 0 30 0 C30 2.64 30 5.28 30 8 C26.7 8 23.4 8 20 8 C20 15.92 20 23.84 20 32 C16.7 32 13.4 32 10 32 C10 24.08 10 16.16 10 8 C6.7 8 3.4 8 0 8 C0 5.36 0 2.72 0 0 Z " fill="#0D0D0D" transform="translate(347,70)"/>
<path d="M0 0 C16.17 0 32.34 0 49 0 C49 2.31 49 4.62 49 7 C32.83 7 16.66 7 0 7 C0 4.69 0 2.38 0 0 Z " fill="#DADADA" transform="translate(99,102)"/>
<path d="M0 0 C2.31 0 4.62 0 7 0 C7.2475 1.051875 7.495 2.10375 7.75 3.1875 C8.55350041 6.09652337 9.19399804 7.23834045 11.1875 9.6875 C13 12 13 12 13 14.0625 C12 16 12 16 10 17.9375 C7.70080717 20.30854261 7.35863113 21.77231982 7 25 C8.32 25 9.64 25 11 25 C11.268125 24.401875 11.53625 23.80375 11.8125 23.1875 C12.98493467 21.02775192 14.19369282 19.64209744 16 18 C16.99 18.33 17.98 18.66 19 19 C17.47005208 20.23697917 15.94010417 21.47395833 14.41015625 22.7109375 C12.86733563 23.9666391 12.86733563 23.9666391 12 26 C36.75 26.495 36.75 26.495 62 27 C62 27.33 62 27.66 62 28 C41.54 28 21.08 28 0 28 C0 18.76 0 9.52 0 0 Z " fill="#D3D3D3" transform="translate(87,70)"/>
<path d="M0 0 C1.084021 0.00523682 2.16804199 0.01047363 3.28491211 0.01586914 C5.03964844 0.02070312 5.03964844 0.02070312 6.82983398 0.02563477 C8.67738281 0.03820312 8.67738281 0.03820312 10.56225586 0.05102539 C12.41560547 0.05779297 12.41560547 0.05779297 14.30639648 0.06469727 C17.37089703 0.07652931 20.43530307 0.09301366 23.49975586 0.11352539 C23.49975586 2.09352539 23.49975586 4.07352539 23.49975586 6.11352539 C14.25975586 6.11352539 5.01975586 6.11352539 -4.50024414 6.11352539 C-3.30757563 0.15018286 -3.30757563 0.15018286 0 0 Z " fill="#ECECEC" transform="translate(114.500244140625,80.886474609375)"/>
</svg>
